<svg width="158" height="156" viewBox="0 0 158 156" fill="none" xmlns="http://www.w3.org/2000/svg">
<path d="M133.556 93.0565C133.1 92.6049 132.559 92.2467 131.963 92.0023C131.367 91.7579 130.729 91.6321 130.084 91.6321C129.439 91.6321 128.8 91.7579 128.204 92.0023C127.608 92.2467 127.067 92.6049 126.611 93.0565L116.991 102.576L113.923 99.5159C113.465 99.0659 112.923 98.7095 112.326 98.4672C111.729 98.2249 111.09 98.1014 110.445 98.1036C109.8 98.1059 109.162 98.2339 108.567 98.4804C107.972 98.7269 107.432 99.087 106.978 99.5401C106.523 99.9894 106.162 100.523 105.915 101.111C105.669 101.698 105.542 102.328 105.542 102.964C105.542 103.6 105.669 104.23 105.915 104.818C106.162 105.405 106.523 105.939 106.978 106.388L111.174 110.541C111.938 111.296 112.845 111.895 113.843 112.304C114.841 112.712 115.911 112.921 116.991 112.92C118.071 112.921 119.14 112.712 120.138 112.304C121.136 111.895 122.043 111.296 122.807 110.541L133.556 99.9287C134.013 99.4776 134.375 98.942 134.622 98.3524C134.869 97.7628 134.996 97.1309 134.996 96.4926C134.996 95.8544 134.869 95.2223 134.622 94.6328C134.375 94.0432 134.013 93.5075 133.556 93.0565Z" fill="#2754A5"/>
<path d="M112.254 121.031V121.007C108.537 119.448 105.367 116.842 103.137 113.513C100.906 110.183 99.7159 106.278 99.7132 102.284C99.7127 98.2346 100.935 94.2772 103.223 90.9195V90.8952C103.836 89.9539 104.105 88.8331 103.984 87.7196C103.863 86.6061 103.361 85.5672 102.56 84.7758C101.297 83.5412 99.9613 82.3817 98.5597 81.3033C95.4153 78.8624 91.9366 76.8756 88.2277 75.4023C91.81 72.5898 94.7037 69.0126 96.6926 64.938C98.6814 60.8634 99.714 56.3967 99.7132 51.8718C99.7002 43.9025 96.495 36.2633 90.7999 30.6282C85.1049 24.9931 77.3845 21.8217 69.3305 21.8089C61.2765 21.8217 53.556 24.9931 47.861 30.6282C42.1659 36.2633 38.9607 43.9025 38.9477 51.8718C38.9459 56.3994 39.9806 60.8685 41.974 64.9439C43.9675 69.0193 46.868 72.5948 50.4578 75.4023C42.3565 78.6598 35.4197 84.2317 30.5328 91.4071C25.6458 98.5825 23.0303 107.036 23.0201 115.689V127.49C23.024 128.777 23.5424 130.01 24.462 130.92C25.3817 131.83 26.6279 132.343 27.9285 132.347H110.708C111.669 132.353 112.609 132.074 113.407 131.546C114.086 131.104 114.643 130.501 115.029 129.794C115.414 129.086 115.616 128.294 115.616 127.49V125.645C115.617 124.624 115.293 123.628 114.689 122.8C114.086 121.972 113.233 121.353 112.254 121.031Z" fill="#80A9DA"/>
</svg>
